<?xml version="1.0" standalone="no"?>
<!DOCTYPE svg PUBLIC "-//W3C//DTD SVG 20010904//EN"
 "http://www.w3.org/TR/2001/REC-SVG-20010904/DTD/svg10.dtd">
<svg version="1.0" xmlns="http://www.w3.org/2000/svg"
 width="602.000000pt" height="310.000000pt" viewBox="0 0 602.000000 310.000000"
 preserveAspectRatio="xMidYMid meet">

<g transform="translate(0.000000,310.000000) scale(0.100000,-0.100000)"
fill="#000000" stroke="none">
<path d="M210 3087 c-29 -15 -70 -72 -70 -99 0 -10 6 -34 14 -53 19 -45 66
-69 124 -62 37 4 48 1 61 -15 16 -19 17 -19 45 11 l30 31 -22 23 c-13 14 -22
36 -22 56 0 47 -27 91 -65 107 -42 17 -63 17 -95 1z m92 -41 c48 -36 40 -108
-15 -134 -76 -36 -142 64 -82 123 27 27 70 32 97 11z"/>
<path d="M677 3066 c-21 -8 -56 -27 -78 -42 -43 -30 -269 -260 -269 -275 0 -4
-22 -5 -48 -2 -63 7 -108 -15 -129 -64 -19 -47 -10 -92 25 -126 35 -33 72 -42
116 -27 47 15 76 57 77 112 1 43 1 44 142 166 209 180 283 249 276 256 -14 14
-76 15 -112 2z m-365 -373 c51 -45 15 -132 -55 -133 -35 0 -77 40 -77 74 0 39
11 57 44 72 33 14 61 10 88 -13z"/>
<path d="M940 2790 l0 -30 100 0 100 0 0 30 0 30 -100 0 -100 0 0 -30z"/>
<path d="M1360 2790 l0 -30 100 0 100 0 0 30 0 30 -100 0 -100 0 0 -30z"/>
<path d="M1780 2790 l0 -30 100 0 100 0 0 30 0 30 -100 0 -100 0 0 -30z"/>
<path d="M2200 2790 l0 -30 100 0 100 0 0 30 0 30 -100 0 -100 0 0 -30z"/>
<path d="M2620 2790 l0 -30 100 0 100 0 0 30 0 30 -100 0 -100 0 0 -30z"/>
<path d="M3040 2790 l0 -30 100 0 100 0 0 30 0 30 -100 0 -100 0 0 -30z"/>
<path d="M3460 2790 l0 -30 100 0 100 0 0 30 0 30 -100 0 -100 0 0 -30z"/>
<path d="M3880 2790 l0 -30 100 0 100 0 0 30 0 30 -100 0 -100 0 0 -30z"/>
<path d="M4300 2790 l0 -30 100 0 100 0 0 30 0 30 -100 0 -100 0 0 -30z"/>
<path d="M4720 2790 l0 -30 100 0 100 0 0 30 0 30 -100 0 -100 0 0 -30z"/>
<path d="M5140 2790 l0 -30 100 0 100 0 0 30 0 30 -100 0 -100 0 0 -30z"/>
<path d="M5560 2790 l0 -30 100 0 100 0 0 30 0 30 -100 0 -100 0 0 -30z"/>
<path d="M5960 2740 l0 -80 30 0 30 0 0 80 0 80 -30 0 -30 0 0 -80z"/>
<path d="M502 2747 l-33 -34 51 -49 c101 -96 193 -138 253 -115 28 11 28 11
-94 118 -67 60 -126 109 -133 111 -6 1 -26 -13 -44 -31z"/>
<path d="M860 1410 l0 -1090 2420 0 2420 0 0 1090 0 1090 -2420 0 -2420 0 0
-1090z m953 319 c42 -11 41 -5 16 -101 -9 -36 -11 -37 -37 -26 -15 6 -58 11
-97 11 -132 1 -203 -63 -213 -193 -8 -117 40 -199 134 -230 36 -12 152 -9 186
5 13 5 18 -3 27 -45 6 -28 11 -57 11 -65 0 -18 -82 -35 -168 -35 -199 0 -323
98 -352 274 -11 70 4 176 33 235 73 150 265 220 460 170z m509 -5 c63 -20 131
-83 165 -152 26 -52 28 -66 28 -172 0 -99 -3 -122 -24 -167 -31 -69 -102 -134
-177 -163 -122 -46 -276 -13 -354 76 -91 104 -111 278 -47 418 70 152 232 215
409 160z m1980 0 c63 -20 131 -83 165 -152 26 -52 28 -66 28 -172 0 -103 -3
-121 -26 -170 -33 -69 -79 -115 -149 -149 -48 -22 -68 -26 -150 -26 -83 0
-101 4 -146 27 -92 48 -144 127 -163 248 -25 158 43 312 169 380 70 38 177 44
272 14z m-1520 -221 c3 -207 5 -242 21 -271 33 -60 121 -77 170 -33 39 34 42
53 47 296 l5 240 75 0 75 0 3 -190 c4 -266 -11 -348 -77 -418 -52 -57 -96 -72
-206 -72 -91 0 -104 2 -147 28 -102 60 -119 114 -125 404 -3 122 -3 229 0 238
5 12 23 15 81 15 l75 0 3 -237z m883 213 c86 -37 131 -113 123 -209 -10 -126
-99 -199 -250 -206 l-78 -3 0 -119 0 -119 -80 0 -80 0 2 333 3 332 35 7 c69
13 282 3 325 -16z m1189 -101 c62 -107 134 -246 163 -315 8 -19 10 34 9 205
l-1 230 70 0 70 0 3 -337 2 -338 -84 0 -85 0 -92 168 c-51 92 -109 202 -129
245 l-36 77 4 -245 5 -245 -77 0 -76 0 0 333 c0 184 3 337 7 341 4 4 45 5 92
4 l85 -3 70 -120z"/>
<path d="M2145 1611 c-62 -26 -105 -113 -105 -214 0 -113 46 -196 121 -218
110 -33 199 68 199 224 0 149 -107 252 -215 208z"/>
<path d="M4110 1602 c-71 -39 -111 -186 -80 -296 25 -89 100 -146 175 -132 73
14 122 85 132 190 8 88 -10 156 -56 207 -32 36 -43 42 -86 46 -37 3 -59 -1
-85 -15z"/>
<path d="M3460 1520 l0 -100 49 0 c95 0 155 74 117 145 -22 41 -53 55 -116 55
l-50 0 0 -100z"/>
<path d="M5960 2340 l0 -100 30 0 30 0 0 100 0 100 -30 0 -30 0 0 -100z"/>
<path d="M520 2240 l0 -100 30 0 30 0 0 100 0 100 -30 0 -30 0 0 -100z"/>
<path d="M5960 1920 l0 -100 30 0 30 0 0 100 0 100 -30 0 -30 0 0 -100z"/>
<path d="M520 1820 l0 -100 30 0 30 0 0 100 0 100 -30 0 -30 0 0 -100z"/>
<path d="M5960 1500 l0 -100 30 0 30 0 0 100 0 100 -30 0 -30 0 0 -100z"/>
<path d="M520 1400 l0 -100 30 0 30 0 0 100 0 100 -30 0 -30 0 0 -100z"/>
<path d="M5960 1080 l0 -100 30 0 30 0 0 100 0 100 -30 0 -30 0 0 -100z"/>
<path d="M520 980 l0 -100 30 0 30 0 0 100 0 100 -30 0 -30 0 0 -100z"/>
<path d="M5960 660 l0 -100 30 0 30 0 0 100 0 100 -30 0 -30 0 0 -100z"/>
<path d="M520 560 l0 -100 30 0 30 0 0 100 0 100 -30 0 -30 0 0 -100z"/>
<path d="M5960 240 l0 -100 30 0 30 0 0 100 0 100 -30 0 -30 0 0 -100z"/>
<path d="M520 140 l0 -100 30 0 30 0 0 100 0 100 -30 0 -30 0 0 -100z"/>
<path d="M700 30 l0 -30 100 0 100 0 0 30 0 30 -100 0 -100 0 0 -30z"/>
<path d="M1120 30 l0 -30 100 0 100 0 0 30 0 30 -100 0 -100 0 0 -30z"/>
<path d="M1540 30 l0 -30 100 0 100 0 0 30 0 30 -100 0 -100 0 0 -30z"/>
<path d="M1960 30 l0 -30 100 0 100 0 0 30 0 30 -100 0 -100 0 0 -30z"/>
<path d="M2380 30 l0 -30 100 0 100 0 0 30 0 30 -100 0 -100 0 0 -30z"/>
<path d="M2800 30 l0 -30 100 0 100 0 0 30 0 30 -100 0 -100 0 0 -30z"/>
<path d="M3220 30 l0 -30 100 0 100 0 0 30 0 30 -100 0 -100 0 0 -30z"/>
<path d="M3640 30 l0 -30 100 0 100 0 0 30 0 30 -100 0 -100 0 0 -30z"/>
<path d="M4060 30 l0 -30 100 0 100 0 0 30 0 30 -100 0 -100 0 0 -30z"/>
<path d="M4480 30 l0 -30 100 0 100 0 0 30 0 30 -100 0 -100 0 0 -30z"/>
<path d="M4900 30 l0 -30 100 0 100 0 0 30 0 30 -100 0 -100 0 0 -30z"/>
<path d="M5320 30 l0 -30 100 0 100 0 0 30 0 30 -100 0 -100 0 0 -30z"/>
<path d="M5740 30 l0 -30 100 0 100 0 0 30 0 30 -100 0 -100 0 0 -30z"/>
</g>
</svg>
